<svg version="1.1" xmlns="http://www.w3.org/2000/svg" xmlns:xlink="http://www.w3.org/1999/xlink" width="276.23539" height="287.40241" viewBox="0,0,276.23539,287.40241"><g transform="translate(-101.88231,-41.28488)"><g data-paper-data="{&quot;isPaintingLayer&quot;:true}" fill-rule="nonzero" stroke-linejoin="miter" stroke-miterlimit="10" stroke-dasharray="" stroke-dashoffset="0" style="mix-blend-mode: normal"><path d="M212.49186,241.34275l18.95504,-1.12127l12.95488,-0.95457l18.40957,2.31824l5.12136,0.71217l-1.84855,7.74259l-1.22731,1.63641l-2.18187,1.50004l-2.18188,1.50003l-3.40918,1.09094l-1.50003,2.86371l-2.18188,2.72734l-1.63641,1.63641l-2.86371,2.31825l-2.04551,1.63641l-3.00008,1.09093h-5.31832l-2.45461,-0.8182l-2.45461,-1.22731l-2.86371,-1.50004l-2.31824,-2.18188l-2.59098,-2.4546l-1.63641,-2.31825l-2.0455,-2.72734h-3.00008l-3.00008,-0.81821l-2.72734,-1.77277l-0.81821,-3.13645l-0.4091,-5.45469z" fill="#4d4d4d" stroke="#4d4d4d" stroke-width="1.5" stroke-linecap="round"/><path d="M231.30576,41.28488h7.23151l9.64201,0.40176l8.43677,1.20526l11.65077,2.81226l8.43677,2.4105l7.63327,3.61576l8.03501,4.0175l8.43677,5.6245l9.24027,8.03501l7.23151,8.43677l7.23151,10.44551l6.02626,9.64201l3.214,7.23151l3.61576,8.03501l2.81226,9.64201l1.20526,7.23151l0.8035,10.44551v7.23151l-1.20526,11.24901l-0.8035,9.24027l-3.214,9.64201l-3.61576,8.83851l-4.821,10.04377l-6.42801,11.24901l-4.821,7.23151l-7.23151,7.63327l-8.03501,6.02626l-10.44551,6.02626l-9.24027,4.41926l-9.24027,2.81226l-5.22276,0.40176c0,0 -16.14841,-3.40917 -24.55426,-3.40917c-10.14679,0 -32.09256,3.40917 -32.09256,3.40917l-7.23151,-2.4105l-7.63327,-3.214l-9.64201,-4.821l-8.83851,-6.02626l-9.64201,-8.83851l-4.821,-5.6245l-6.02626,-8.83851l-6.82976,-10.84727l-4.41926,-11.65077l-4.41926,-14.86477l-1.607,-12.05251v-11.24901l0.40176,-9.24027l2.4105,-13.25777l3.61576,-11.65077l4.0175,-9.64201l4.41926,-8.43677l6.02626,-8.83851l8.03501,-9.24027l6.42801,-6.02626l7.23151,-5.6245l6.82976,-4.0175l7.63327,-4.0175l8.03501,-3.61576l10.44551,-4.0175c0,0 4.65603,-0.97002 6.43118,-1.33984c1.25429,-0.26131 3.21083,-0.66892 3.21083,-0.66892z" fill="#4d4d4d" stroke="#000000" stroke-width="0" stroke-linecap="round"/><path d="M218.85153,208.01137l-0.40176,-9.24027l-1.20526,-4.0175l-3.214,-4.821l-7.39234,-6.1065l-6.26717,-5.94601l-4.41926,-6.02626l-2.81226,-6.02626l-1.3661,-6.1065l-1.04442,-4.74077l-0.0806,-6.18693l0.48234,-10.6866l2.81226,-7.23151l2.00876,-6.02626l3.77643,-6.50844l4.25843,-4.90143c0,0 3.40125,-3.48377 6.02626,-5.70494c2.62502,-2.22116 5.38326,-3.61559 5.38326,-3.61559l6.83011,-3.45527l7.15127,-2.49093l8.27592,-1.04442l7.87434,-0.16066l7.79411,1.92833l8.99917,3.13376l6.02644,4.0175l6.74916,5.54427l3.61576,4.821l6.82976,10.44551l3.214,9.24027l1.20526,9.24027l-1.20526,9.24027l-2.4105,8.43677l-4.41926,9.64201l-4.0175,5.22276l-4.0175,4.41926l-4.821,4.821l-3.61576,2.81226l-2.81226,4.41926v12.05251v2.4105l-9.24027,-0.40176l-0.40176,-7.23151l-0.40176,-6.02626l0.40176,-8.43677l0.8035,-4.821l1.20526,-6.42801l2.00876,-4.41926l2.81226,-3.214l4.821,-5.22276l2.4105,-2.81226l2.4105,-4.41926l1.607,-3.214l0.40176,-3.214l-1.20526,-4.0175l-2.78391,-4.04585l-3.64411,-2.78391l-4.0175,-1.607h-3.61576l-4.0175,1.20526l-3.76856,1.98041l-2.25768,2.03709l-1.51088,3.214l-0.49786,3.214l0.40176,3.214l0.8035,3.61576l2.81226,4.821l3.61576,4.0175l-2.81226,4.0175l-2.81226,6.82976l-0.8035,5.6245l-0.40176,4.821v7.63327l-0.24081,15.66708l-7.7942,0.00119l-0.22968,-11.61521l-0.48161,-9.39163l-0.96325,-8.66919l-1.44486,-5.53865l-1.68568,-3.85296l-2.64891,-3.37135l2.1673,-3.13054l1.68568,-3.85296l1.44486,-2.88974l1.20405,-4.33459v-4.81621l-2.1673,-4.33459l-3.85296,-3.13054l-2.4081,-1.92649l-2.64891,-1.20405l-3.85296,-0.24081l-4.33459,1.44486l-2.1673,1.68568l-3.13054,2.64891l-1.20405,2.64891l-0.96325,2.64891l-0.83877,3.59591l0.24894,2.18355v2.05096l1.07147,2.76527l2.1673,2.1673l1.92649,1.68568l3.61216,3.61216l2.88974,3.37135l3.13054,4.5754l2.88974,5.77945l0.72244,3.61216l0.72244,25.52593z" fill="#ffef9a" stroke="#000000" stroke-width="0" stroke-linecap="round"/><path d="M222.85575,214.03896l31.77356,-0.27274l3.13644,0.95457l2.18188,1.77278l1.22731,1.77277l-0.13636,2.31824l-1.22731,2.45461l-1.22731,1.50004l-0.93439,0.33102h-36.41487l-1.564,-0.9775l-0.90596,-1.39903l-0.27274,-1.50003l-0.27274,-1.77278l0.27274,-1.36367l1.09094,-1.90914z" fill="#ffffff" stroke="#797979" stroke-width="0.5" stroke-linecap="round"/><path d="M258.99303,231.18715l1.36367,1.22731l0.81821,1.63641l-0.13636,1.22731l-0.95457,0.95457l-0.95457,0.27273l-1.90914,0.68183l-36.95551,0.40911l-0.95457,-1.22731v-1.77278l-0.13637,-1.63641l0.27274,-1.09093l0.95457,-0.95457l2.59098,-0.4091l34.50091,-0.27274z" fill="#ffffff" stroke="#797979" stroke-width="0.5" stroke-linecap="round"/><path d="M258.44759,241.99424l1.77277,3.00008l-0.4091,1.63641l-1.09094,0.95457l-1.36367,1.09094l-2.0455,0.68183l-23.59153,0.13636l-8.7275,-0.68183l-3.54555,-0.54546l-1.22731,-1.36368l-0.13636,-1.50003l0.13636,-1.90914l1.22731,-1.22731l5.18195,-1.63641l15.27313,-1.22731l6.54562,0.13636l8.45476,0.95457z" fill="#ffffff" stroke="#4d4d4d" stroke-width="1.5" stroke-linecap="round"/><path d="M251.35649,254.40366l-1.90913,2.31824l-3.40918,2.59098l-4.22738,1.22731h-4.09102l-5.45469,-1.50004l-2.18188,-1.63641l-1.50003,-3.27281l0.4091,-0.95457l22.50059,-0.13637z" fill="#ffffff" stroke="#4d4d4d" stroke-width="1.5" stroke-linecap="round"/><path d="M331.26768,138.62789l-0.54547,-5.04558l-0.54546,-4.63649l-0.54547,-3.13644l-1.36367,-4.50012l-0.81821,-3.81828l-1.77277,-5.59106l-1.09094,-1.90914l-1.90914,-3.95465l-2.86371,-5.45469l-2.72734,-4.90922l-2.59098,-3.95465l-2.18188,-2.86371l-2.0455,-3.13645l-1.22731,-1.36367l-2.18188,-1.90914l-3.00008,-3.40918l-3.81828,-3.95465l-5.18195,-4.22738l-1.90914,-1.09094l-3.95465,-2.31824l-4.36375,-2.86371l-3.00008,-1.90914l-4.22739,-2.0455l-4.90922,-2.72735l-3.95465,-2.18187l-6.40926,-1.90914l-5.04559,-0.54547l-5.04558,-0.4091l-15.68223,-0.54547l-4.09102,0.27274l-5.45469,0.4091l-2.31824,0.54547l-1.90914,0.54546l-3.95465,1.22731l-4.22739,1.22731l-5.18195,1.77278l-3.27281,1.09093l-3.54555,1.77277l-4.50012,2.45461l-3.54555,2.31824l-3.00008,1.77278l-3.81828,2.31824l-4.36375,3.54555l-3.27281,2.31824l-4.09102,4.09102l-3.68191,4.09102l-4.90922,5.72742l-3.40918,5.18195l-2.86371,5.18195l-3.13645,6.13652l-2.8637,7.50019l-1.90914,5.18195l-1.09094,4.09102l-0.95457,4.63649l-0.95457,7.22746l-0.68183,4.90922l-0.27274,6.40926l0.40911,5.31833l0.27273,4.77285l1.09094,6.54562l0.54546,3.68191l0.68184,2.86371l1.2273,3.00008l2.04551,5.45469l3.40917,7.09109l1.22731,3.00008l1.90914,3.13645l2.86371,4.63648l3.27281,4.90922l3.54555,3.81828l3.27281,3.68192l3.95466,3.95465l3.40917,3.00008l3.95466,3.13645l4.77285,3.27281l5.31832,3.13645l6.13652,3.00008l4.50012,1.77278l4.09102,0.95457l0.54547,5.86379l-2.45461,0.4091l-3.13645,-0.27273l-4.90922,-1.77278l-5.72742,-2.59098l-3.27281,-1.77277l-3.95465,-2.18188l-4.22739,-2.45461l-3.81827,-3.00008l-5.18196,-4.36375l-3.68191,-3.54555l-4.50012,-4.77285l-3.00008,-3.54555l-2.18188,-2.72734l-1.77278,-2.72735l-2.18187,-3.40917l-2.31825,-3.68192l-1.90914,-4.22738l-2.4546,-5.31832l-2.45461,-6.13653l-0.95457,-3.13644l-1.22731,-3.81828l-1.63641,-6.00016l-0.95457,-5.31832l-0.68183,-5.72742l-0.4091,-7.9093l-0.27274,-6.27289l0.54547,-5.31833l0.68183,-6.00016l1.63641,-5.18195l1.09093,-4.36375l1.90914,-6.54563l1.22731,-3.68191l3.27281,-6.68199l3.27281,-6.27289l3.54556,-5.72742l3.95465,-5.18195l2.86371,-3.68192l4.77285,-5.45469l4.50012,-4.36375l5.59105,-4.50012l3.40918,-2.45461l4.63648,-3.40918l3.95465,-2.31824l5.04559,-2.59098l4.90922,-2.4546l5.04559,-2.18188l6.13652,-1.63641l3.81828,-1.22731l3.68191,-0.68183l3.13645,-0.68183l4.36375,-0.40911l6.00015,-0.8182l6.40926,0.13636l5.8638,0.27274l4.36375,0.4091l3.81828,0.54547l5.31833,0.95457l3.27281,0.81821l4.22738,1.09093l2.72734,1.22731l3.54555,1.36367l3.68192,1.50004l5.04559,2.31824l6.27289,3.95465l7.09109,4.77285l5.04559,4.09102l4.63648,4.22738l5.18195,5.45469l3.95466,4.50012l3.95465,4.90922l4.36375,6.81836l2.4546,4.22739l2.45461,6.00015l1.77277,4.90922l1.50004,4.22739l1.22731,4.36375l0.54547,2.59098l1.50003,6.00016l0.4091,3.54555l0.27274,3.54555l0.13637,8.86387l0.27274,8.04566v5.45469l-0.68184,3.68191l-0.95456,4.77285l-1.22731,5.86379l-1.63641,5.18195l-2.04551,5.04559l-3.13645,6.40926l-5.04558,8.7275l-3.95466,6.13652l-3.27281,3.81828l-4.09101,5.18195l-3.00008,3.54555l-5.59105,5.18195l-5.31833,3.95466l-4.09101,2.8637l-3.54555,2.31825l-4.09102,2.0455l-4.90922,2.0455l-4.22739,1.50004l-4.22738,0.95457l-2.59098,0.13636l-0.13636,-4.63648l4.90922,-1.90914l6.13652,-2.72734l5.04559,-2.86371l6.81836,-4.50012l5.04559,-3.68192l5.86379,-5.18195l6.13652,-6.40926l4.22738,-5.45469l5.18195,-7.36383l4.09102,-6.95472l3.81828,-9.13661l1.90914,-7.09109l1.63641,-7.22746l1.50004,-7.77293l0.4091,-5.18196l0.27274,-5.72742z" fill="#ffffff" stroke="#5d5d5d" stroke-width="1" stroke-linecap="round"/><path d="M222.77677,159.02352c0,0 -2.53962,-1.55367 -3.38089,-2.72635c-0.91914,-1.28123 -1.92106,-4.66425 -1.92106,-4.66425l-0.16066,-4.65929l1.44599,-1.44599l5.62329,-0.32134l2.89197,3.05264l0.32134,5.30196l-2.57065,2.40998l-0.80332,3.53464z" fill="#ffef9a" stroke="#000000" stroke-width="0" stroke-linecap="round"/><path d="M255.39184,159.50552l-0.80332,-3.53464l-1.28533,-1.44599l-0.96398,-6.26595c0,0 0.54294,-1.13298 0.97285,-1.61662c0.42695,-0.48032 1.59779,-1.27536 1.59779,-1.27536l5.94462,0.16067l1.44599,1.44599l-0.16066,4.65929c0,0 -1.00192,3.38303 -1.92106,4.66425c-0.84127,1.17268 -3.38089,2.72635 -3.38089,2.72635z" data-paper-data="{&quot;index&quot;:null}" fill="#ffef9a" stroke="#000000" stroke-width="0" stroke-linecap="round"/><text transform="translate(192.40056,108.70264) rotate(-47.94384) scale(0.9017,0.9017)" font-size="40" xml:space="preserve" fill="#ffffff" fill-rule="nonzero" stroke="none" stroke-width="1" stroke-linecap="butt" stroke-linejoin="miter" stroke-miterlimit="10" stroke-dasharray="" stroke-dashoffset="0" font-family="Curly" font-weight="normal" text-anchor="start" style="mix-blend-mode: normal"><tspan x="0" dy="0">I</tspan></text><text transform="translate(209.40383,90.58527) rotate(-13.89603) scale(0.90169,0.90169)" font-size="40" xml:space="preserve" fill="#ffffff" fill-rule="nonzero" stroke="none" stroke-width="1" stroke-linecap="butt" stroke-linejoin="miter" stroke-miterlimit="10" stroke-dasharray="" stroke-dashoffset="0" font-family="Curly" font-weight="normal" text-anchor="start" style="mix-blend-mode: normal"><tspan x="0" dy="0">D</tspan></text><text transform="translate(245.54354,83.53446) rotate(18.72394) scale(0.9017,0.9017)" font-size="40" xml:space="preserve" fill="#ffffff" fill-rule="nonzero" stroke="none" stroke-width="1" stroke-linecap="butt" stroke-linejoin="miter" stroke-miterlimit="10" stroke-dasharray="" stroke-dashoffset="0" font-family="Curly" font-weight="normal" text-anchor="start" style="mix-blend-mode: normal"><tspan x="0" dy="0">E</tspan></text><text transform="translate(275.97437,92.73553) rotate(49.08325) scale(0.90169,0.90169)" font-size="40" xml:space="preserve" fill="#ffffff" fill-rule="nonzero" stroke="none" stroke-width="1" stroke-linecap="butt" stroke-linejoin="miter" stroke-miterlimit="10" stroke-dasharray="" stroke-dashoffset="0" font-family="Curly" font-weight="normal" text-anchor="start" style="mix-blend-mode: normal"><tspan x="0" dy="0">A</tspan></text><path d="M295.95208,258.00663l12.02261,-3.00566l5.1096,-4.50848l-2.40451,-7.21356l1.20226,-6.91299l6.61243,-7.21356l6.61244,-4.50848l6.0113,3.00565l6.0113,3.00565l4.50848,-0.9017l10.82034,-3.00565l7.51412,-6.0113l6.0113,-6.61243l6.61243,-11.12091l3.30622,-16.23052l0.60113,-7.51413l-10.51978,-0.9017l-8.71639,-0.30056l-9.91865,1.50283l0.30057,-14.42712l2.70509,-9.61809l-2.70509,-10.82034l3.00565,-12.32317l-4.80904,-6.0113l-0.30057,-6.61244l1.80339,-6.31187l6.1475,-6.02662l-0.40075,-4.40828l-3.60678,4.00753l-4.80905,2.80527l-3.60678,-6.61243l-0.8015,-5.2098l0.40075,-6.0113l3.00565,-5.81092l4.80905,-6.21168l4.20791,5.2098l2.00377,4.40829l-0.60113,6.21168l0.20037,5.20979l-1.20226,4.00754l3.00565,1.40263l-5.2098,3.00566l-3.20602,3.4064l-2.00377,5.41017v5.81093l1.40263,5.2098l2.20415,1.80339l4.80904,1.40263l4.00753,-4.40829l2.6049,-6.0113l1.60302,-7.61432l-1.00188,-5.41017l-2.40452,-6.8128l2.80527,9.01695l0.40076,5.00941l-0.80151,4.60866l-1.20226,3.40641l-2.40452,3.60678l-3.60678,2.6049l-4.00754,2.80527l-1.20226,4.60866l-0.60113,10.61997l1.20227,7.21356l4.60866,-1.20226l4.40829,-2.6049l4.40829,-3.60678l1.40263,-5.00942l1.00188,-7.41394l-0.60112,-5.41017l-3.20603,0.60113l-5.00941,1.40263l-4.40829,3.00566l-2.80527,4.20791l-1.40264,4.00754l0.60113,4.20791l1.80339,5.41017l0.20037,4.60866l-3.00565,8.21545l0.20037,16.03013l-0.40076,-4.20791l-0.20037,-10.21922l1.20226,-5.81092l3.40641,-4.60866l3.60678,-2.6049l2.20415,-0.80151l4.20791,-1.00188l4.60866,0.20037l-0.40075,5.81093l-0.80151,5.61055l-1.40263,4.00753l-2.80528,3.40641l-4.40828,4.80904l-6.0113,3.20603l-7.01319,3.80716l5.2098,-2.80527l7.21356,-1.60302l6.0113,-0.80151l6.41205,0.20038l8.01507,1.20226l-1.00189,9.21733l-2.00377,8.41582l-3.40641,9.61809l-3.60678,5.81093l-6.06139,5.82311l-7.21356,5.41017l-7.66441,2.70509l-9.4678,1.35254l-3.60678,-0.9017l-4.50848,-5.86102l0.45085,-7.66441l1.35254,-5.41017l4.95932,-8.56611l5.41017,-6.76271l3.15593,4.05763l3.15593,13.57553l16.43799,-21.28382l-16.78865,22.63637l-0.95178,5.51036l-3.40641,5.20979l-6.56234,6.81281l-2.25424,5.41017l-9.91865,10.3695l3.60678,-4.50848l2.70509,-5.86102v-6.76271l-2.70509,-4.05763l-8.11526,4.50848l-4.95932,4.50848l-2.25424,4.95932v7.21356l1.80339,5.41017h7.66441l3.60678,1.80339l8.56611,2.70509l15.32882,0.9017l11.72204,-2.25424l7.21356,-5.41017l4.95932,-5.41017l-7.21356,-4.05763l-10.82034,-1.35254l-8.56611,1.35254l-9.91865,3.60678l-11.72204,5.41017l-9.91865,4.50848l-11.27119,4.05763l-10.82034,2.25424z" fill="#d9ffe7" stroke="#6c6c6c" stroke-width="3" stroke-linecap="round"/><path d="M188.26993,258.95529l-10.82034,-2.25424l-11.27119,-4.05763l-9.91865,-4.50848l-11.72204,-5.41017l-9.91865,-3.60678l-8.56611,-1.35254l-10.82034,1.35254l-7.21356,4.05763l4.95932,5.41017l7.21356,5.41017l11.72204,2.25424l15.32882,-0.9017l8.56611,-2.70509l3.60678,-1.80339h7.66441l1.80339,-5.41017v-7.21356l-2.25424,-4.95932l-4.95932,-4.50848l-8.11526,-4.50848l-2.70509,4.05763v6.76271l2.70509,5.86102l3.60678,4.50848l-9.91865,-10.3695l-2.25424,-5.41017l-6.56234,-6.81281l-3.40641,-5.20979l-0.95178,-5.51036l-16.78865,-22.63637l16.43799,21.28382l3.15593,-13.57553l3.15593,-4.05763l5.41017,6.76271l4.95932,8.56611l1.35254,5.41017l0.45085,7.66441l-4.50848,5.86102l-3.60678,0.9017l-9.4678,-1.35254l-7.66441,-2.70509l-7.21356,-5.41017l-6.06139,-5.82311l-3.60678,-5.81093l-3.40641,-9.61809l-2.00377,-8.41582l-1.00189,-9.21733l8.01507,-1.20226l6.41205,-0.20038l6.0113,0.80151l7.21356,1.60302l5.2098,2.80527l-7.01319,-3.80716l-6.0113,-3.20603l-4.40828,-4.80904l-2.80528,-3.40641l-1.40263,-4.00753l-0.80151,-5.61055l-0.40075,-5.81093l4.60866,-0.20037l4.20791,1.00188l2.20415,0.80151l3.60678,2.6049l3.40641,4.60866l1.20226,5.81092l-0.20037,10.21922l-0.40076,4.20791l0.20037,-16.03013l-3.00565,-8.21545l0.20037,-4.60866l1.80339,-5.41017l0.60113,-4.20791l-1.40264,-4.00754l-2.80527,-4.20791l-4.40829,-3.00566l-5.00941,-1.40263l-3.20603,-0.60113l-0.60112,5.41017l1.00188,7.41394l1.40263,5.00942l4.40829,3.60678l4.40829,2.6049l4.60866,1.20226l1.20227,-7.21356l-0.60113,-10.61997l-1.20226,-4.60866l-4.00754,-2.80527l-3.60678,-2.6049l-2.40452,-3.60678l-1.20226,-3.40641l-0.80151,-4.60866l0.40076,-5.00941l2.80527,-9.01695l-2.40452,6.8128l-1.00188,5.41017l1.60302,7.61432l2.6049,6.0113l4.00753,4.40829l4.80904,-1.40263l2.20415,-1.80339l1.40263,-5.2098v-5.81093l-2.00377,-5.41017l-3.20602,-3.4064l-5.2098,-3.00566l3.00565,-1.40263l-1.20226,-4.00754l0.20037,-5.20979l-0.60113,-6.21168l2.00377,-4.40829l4.20791,-5.2098l4.80905,6.21168l3.00565,5.81092l0.40075,6.0113l-0.8015,5.2098l-3.60678,6.61243l-4.80905,-2.80527l-3.60678,-4.00753l-0.40075,4.40828l6.1475,6.02662l1.80339,6.31187l-0.30057,6.61244l-4.80904,6.0113l3.00565,12.32317l-2.70509,10.82034l2.70509,9.61809l0.30057,14.42712l-9.91865,-1.50283l-8.71639,0.30056l-10.51978,0.9017l0.60113,7.51413l3.30622,16.23052l6.61243,11.12091l6.0113,6.61243l7.51412,6.0113l10.82034,3.00565l4.50848,0.9017l6.0113,-3.00565l6.0113,-3.00565l6.61244,4.50848l6.61243,7.21356l1.20226,6.91299l-2.40451,7.21356l5.1096,4.50848l12.02261,3.00566z" data-paper-data="{&quot;index&quot;:null}" fill="#d9ffe7" stroke="#6c6c6c" stroke-width="3" stroke-linecap="round"/><path d="M103.6632,317.98815v-46.88816h268.7052v46.88816z" fill="#797979" stroke="#6c6c6c" stroke-width="2.5" stroke-linecap="butt"/><text transform="translate(141.36029,313.61649) scale(1.2559,1.2559)" font-size="40" xml:space="preserve" fill="#ffffff" fill-rule="nonzero" stroke="#000000" stroke-width="0" stroke-linecap="butt" stroke-linejoin="miter" stroke-miterlimit="10" stroke-dasharray="" stroke-dashoffset="0" font-family="Serif" font-weight="normal" text-anchor="start" style="mix-blend-mode: normal"><tspan x="0" dy="0">Idea</tspan></text><text transform="translate(207.79273,315.6305) scale(0.82325,0.82325)" font-size="40" xml:space="preserve" fill="#ffffff" fill-rule="nonzero" stroke="none" stroke-width="1" stroke-linecap="butt" stroke-linejoin="miter" stroke-miterlimit="10" stroke-dasharray="" stroke-dashoffset="0" font-family="Serif" font-weight="normal" text-anchor="start" style="mix-blend-mode: normal"><tspan x="0" dy="0">　Co., Ltd.</tspan></text></g></g></svg>